<svg width="157" height="243" viewBox="0 0 157 243" fill="none" xmlns="http://www.w3.org/2000/svg">
<path d="M157 68.9766V68.3289C157 26.0301 123.483 0 75.6573 0C48.0696 0 26.1388 7.77772 8.57123 19.8195C-1.64124 26.8184 -2.56063 42.1625 4.92127 52.0369L10.3772 59.2376C17.8591 69.1077 31.2567 70.0461 42.1022 64.0554C51.9861 58.5951 62.0105 55.6394 71.4261 55.6394C87.0428 55.6394 95.8287 62.4693 95.8287 73.5356V73.859C95.8287 87.8526 82.4872 107.85 44.7439 111.101L43.4442 112.565C42.7266 113.372 43.6322 123.96 45.4615 136.208L46.9631 146.195C48.7924 158.443 59.0937 168.369 69.9633 168.369C80.833 168.369 90.5237 163.706 91.594 157.96C92.6773 152.209 93.5501 147.546 93.5501 147.546C129.661 138.755 157 109.976 157 68.9766Z" fill="white" fill-opacity="0.58"/>
<path d="M59.3567 187.237C46.9726 187.237 36.9387 197.276 36.9387 209.66V220.131C36.9387 232.515 46.9778 242.554 59.3567 242.554H78.6087C90.9929 242.554 101.032 232.515 101.032 220.131V209.66C101.032 197.276 90.9886 187.237 78.6087 187.237H59.3567Z" fill="white" fill-opacity="0.58"/>
</svg>
