<svg width="447" height="400" viewBox="0 0 447 400" fill="none" xmlns="http://www.w3.org/2000/svg">
<path d="M176.947 163.529C171.759 165.322 168.766 166.23 163.225 167.612C154.227 192.617 182.999 188.595 181.622 173.442C172.918 183.596 166.772 169.328 178.257 165.231C177.86 164.671 177.424 164.104 176.947 163.529Z" fill="black"/>
<path d="M252.299 166.361C247.169 165.975 242.459 164.969 234.469 162.691C233.784 163.602 233.191 164.952 232.675 165.818C239.462 161.972 242.873 168.359 240.768 172.387C238.925 175.912 230.887 177.185 230.563 169.803C223.742 189.863 259.061 191.855 252.299 166.361Z" fill="black"/>
<path d="M373.82 148.081C363.315 140.778 353.603 134.667 344.261 129.671C335.35 138.974 325.889 143.256 307.006 148.965C326.218 152.797 346.293 152.145 373.82 148.081Z" fill="black"/>
<path d="M227.173 26.7527C217.351 31.4503 208.367 38.6598 200.402 47.0872C205.112 48.3374 209.724 58.1504 214.21 73.604C224.045 56.3865 228.805 39.6728 227.173 26.7527Z" fill="black"/>
<path d="M193.537 187.257C193.307 185.908 199.823 184.876 199.876 186.253C199.949 188.143 197.542 188.932 196.636 189.076C194.769 189.371 193.874 189.245 193.537 187.257Z" fill="black"/>
<path d="M206.733 251.21C192.609 250.306 174.711 241.267 161.436 231.136M175.409 113.036C180.482 109.913 182.275 109.049 188.342 106.812M188.342 106.812C209.62 96.9638 244.749 98.9 260.482 111.161C292.691 108.44 316.554 114.852 344.261 129.671M188.342 106.812C199.181 95.411 207.846 84.7456 214.21 73.604M200.402 47.0872C175.587 73.3448 160.664 111.426 161.087 122.198C161.218 125.512 147.549 135.635 147.341 155.527C147.128 175.938 145.648 189.129 143.549 196.029M200.402 47.0872C208.367 38.6598 217.351 31.4503 227.173 26.7527C228.805 39.6728 224.045 56.3865 214.21 73.604M200.402 47.0872C205.112 48.3374 209.724 58.1504 214.21 73.604M281.471 141.001C282.379 141.332 283.262 141.653 284.123 141.967M344.261 129.671C353.603 134.667 363.315 140.778 373.82 148.081C346.293 152.145 326.218 152.797 307.006 148.965M344.261 129.671C335.35 138.974 325.889 143.256 307.006 148.965M307.006 148.965C299.172 147.402 292.708 145.091 284.123 141.967M284.123 141.967C298.825 171.967 277.129 194.8 295.853 266.652C296.768 270.162 297.626 273.566 298.427 276.867M161.436 231.136C150.105 255.017 148.148 275.801 156.458 293.811M161.436 231.136C159.43 229.605 157.503 227.668 155.737 226.112M194.764 268.346C201.221 287.183 196.569 300.851 194.704 311.769C194.22 314.604 191.54 315.041 189.876 313.457C189.729 315.328 187.012 315.758 186.253 314.031C184.824 316.566 183.466 316.781 181.272 314.82C180.219 316.834 178.374 317.554 176.744 315.537C175.538 316.651 173.656 319.259 171.38 314.077C164.732 307.75 159.776 301.002 156.458 293.811M233.914 252.447C223.748 273.622 219.646 288.883 222.41 310.613C222.583 311.971 225.209 313.403 226.715 311.317C227.842 314.72 229.323 314.317 232.455 312.255C233.916 316.183 235.196 315.406 237.665 312.815C239.053 316.599 240.252 315.558 242.423 313.447C243.328 316.31 244.905 314.748 246.952 312.73C267.994 302.47 275.26 286.793 280.21 259.431M254.667 371.8L283.995 371.982C285.068 371.734 286.104 371.449 287.104 371.123M254.667 371.8C229.963 369.276 213.015 368.128 191.515 369.606M254.667 371.8C243.861 384.312 268.785 384.333 303.579 385.968C302.992 385.507 302.463 385.067 301.958 384.642M156.458 293.811C155.125 303.258 151.385 315.803 148.144 322.376C138.819 341.288 146.882 360.188 161.883 367.635M161.883 367.635C166.352 369.854 171.436 371.056 176.86 370.939C182.038 370.364 186.882 369.924 191.515 369.606M161.883 367.635C148.563 371.861 139.275 376.892 136.798 384.212C138.594 383.738 139.929 382.67 141.886 381.313M147.279 377.472C145.317 378.468 143.105 380.468 141.886 381.313M154.077 379.166C151.396 379.807 149.602 380.714 146.308 382.705M191.515 369.606C195.374 378.629 179.518 378.369 142.691 386.049C142.691 386.049 145.155 383.402 146.308 382.705M146.308 382.705C143.014 384.697 139.292 385.202 139.292 385.202L141.886 381.313M293.146 379.308C297.791 381.036 299.612 382.668 301.958 384.642M300.238 377.261C304.808 379.264 307.351 380.707 310.646 384.387M287.104 371.123C301.639 372.193 306.828 375.788 313.994 384.319L310.646 384.387M287.104 371.123C296.319 368.119 302.445 361.715 305.287 350.598M310.646 384.387L311.506 386.098C308.315 386.435 306.224 386.115 301.958 384.642M143.549 196.029C143.074 200.684 142.969 204.421 143.746 208.988C144.547 213.7 148.572 219.797 155.737 226.112M143.549 196.029C155.773 192.707 165.781 212.513 155.737 226.112M192.919 216.451C192.919 216.451 197.506 207.873 200.676 207.371C203.846 206.869 221.083 217.994 221.083 217.994M160.777 168.279C161.871 167.954 162.247 167.903 163.225 167.612M180.046 162.608C178.952 162.933 177.925 163.239 176.947 163.529M176.947 163.529C177.424 164.104 177.86 164.671 178.257 165.231M176.947 163.529C171.759 165.322 168.766 166.23 163.225 167.612M163.225 167.612C154.227 192.617 182.999 188.595 181.622 173.442M178.257 165.231C180.374 168.212 181.398 170.974 181.622 173.442M178.257 165.231C166.772 169.328 172.918 183.596 181.622 173.442M231.534 161.842C232.561 162.143 233.537 162.426 234.469 162.691M254.647 166.494C253.846 166.462 253.068 166.418 252.299 166.361M252.299 166.361C247.169 165.975 242.459 164.969 234.469 162.691M252.299 166.361C259.061 191.855 223.742 189.863 230.563 169.803M234.469 162.691C233.784 163.602 233.191 164.952 232.675 165.818M232.675 165.818C231.414 167.936 231.623 167.832 230.563 169.803M232.675 165.818C239.462 161.972 242.873 168.359 240.768 172.387C238.925 175.912 230.887 177.185 230.563 169.803M305.287 350.598L312.113 351.364L308.367 329.328L331.997 328.818L323.552 298.289L351.482 295.712L346.554 250.309L418.556 238.905L425.667 174.045C375.137 179.332 348.246 187.595 302.682 211.074L323.359 277.998L298.427 276.867M305.287 350.598C307.411 342.288 307.394 329.547 305.767 315.422M298.427 276.867C299.718 282.183 300.257 284.095 301.257 288.888M301.257 288.888C303.206 298.233 304.905 307.943 305.767 315.422M301.257 288.888L305.385 299.319M305.767 315.422L312.266 316.702L305.385 299.319M305.385 299.319L308.979 297.364L316.619 304.005C316.619 304.005 317.518 301.092 318.118 299.149C318.789 296.978 321.645 303.49 324.017 303.757M273.518 200.914C267.623 195.04 258.186 195.809 252.229 201.515C247.03 206.495 243.725 214.408 244.719 220.255C245.797 226.599 251.939 229.149 258.404 229.633C270.93 230.571 281.916 209.283 273.518 200.914ZM193.537 187.257C193.307 185.908 199.823 184.876 199.876 186.253C199.949 188.143 197.542 188.932 196.636 189.076C194.769 189.371 193.874 189.245 193.537 187.257Z" stroke="black"/>
</svg>
