<svg width="13" height="14" viewBox="0 0 13 14" fill="none" xmlns="http://www.w3.org/2000/svg">
<path fill-rule="evenodd" clip-rule="evenodd" d="M1.95492 11.9366C1.9086 11.893 1.86279 11.8486 1.81751 11.8033C-0.572819 9.41297 -0.572819 5.53749 1.81751 3.14716C4.20784 0.756832 11.8243 0.59692 11.8243 0.59692C11.8243 0.59692 12.864 9.41297 10.4737 11.8033C8.35074 13.9262 5.05637 14.1637 2.67135 12.5158L4.59312 10.1574L7.66521 9.49419L5.15748 9.24349L6.75118 7.62079L8.5653 7.22339L7.13081 6.79854L8.5653 4.21075L6.52486 6.49944L5.73692 5.38755L6.0143 7.22339L4.59312 8.82552L3.93432 6.79854L3.93432 9.49419L1.95492 11.9366Z" fill="white"/>
</svg>
