<svg width="18" height="18" viewBox="0 0 18 18" fill="none" xmlns="http://www.w3.org/2000/svg">
<path fill-rule="evenodd" clip-rule="evenodd" d="M13.153 1.83573L13.2051 6.41341L9.21237 8.33009L9.16314 4.00789L13.153 1.83573Z" fill="white"/>
<path fill-rule="evenodd" clip-rule="evenodd" d="M17.1554 9.04902L13.2029 11.3098L9.24808 9.04544L13.2009 6.96914L17.1554 9.04902Z" fill="white"/>
<path fill-rule="evenodd" clip-rule="evenodd" d="M8.54507 9.04902L4.59255 11.3098L0.637702 9.04544L4.59051 6.96914L8.54507 9.04902Z" fill="white"/>
<path fill-rule="evenodd" clip-rule="evenodd" d="M4.54813 1.81697L8.65055 3.84874L8.54566 8.27643L4.67221 6.35805L4.54813 1.81697Z" fill="white"/>
<path fill-rule="evenodd" clip-rule="evenodd" d="M13.2646 16.2118L9.1622 14.18L9.26708 9.75231L13.1405 11.6707L13.2646 16.2118Z" fill="white"/>
<path fill-rule="evenodd" clip-rule="evenodd" d="M4.68982 16.253L4.63769 11.6753L8.63041 9.75862L8.67963 14.0808L4.68982 16.253Z" fill="white"/>
</svg>
