<svg width="10" height="16" viewBox="0 0 10 16" fill="none" xmlns="http://www.w3.org/2000/svg">
<path fill-rule="evenodd" clip-rule="evenodd" d="M10 11.0188C10 13.7698 7.76142 16 5 16C2.23858 16 0 13.7698 0 11.0188C0 8.75182 3.39522 3.13042 4.59006 1.22234C4.78205 0.915741 5.21795 0.91574 5.40994 1.22234C6.60478 3.13042 10 8.75182 10 11.0188ZM4.1665 14.4031C1.62926 13.8479 2.06344 11.0373 2.06344 11.0373C2.06344 11.0373 2.75628 12.734 4.43759 13.2835C6.11891 13.8331 8.15074 13.0271 8.15074 13.0271C8.15074 13.0271 6.70373 14.9582 4.1665 14.4031Z" fill="white"/>
</svg>
